<?xml version="1.0" encoding="utf-8"?>
<!-- Generator: Adobe Illustrator 21.1.0, SVG Export Plug-In . SVG Version: 6.00 Build 0)  -->
<svg version="1.1" xmlns="http://www.w3.org/2000/svg" xmlns:xlink="http://www.w3.org/1999/xlink" x="0px" y="0px"
	 viewBox="0 0 345 88.4" xml:space="preserve">
<style type="text/css">
	.st0{fill:#58595C;}
	.st1{display:none;}
	.st2{display:inline;fill:none;}
</style>
<g id="ECUAD_Wordmark">
	<g>
		<g>
			<g>
				<path class="st0" d="M20.9,42.4V21.4h15.3v4.3H26.2v4h8.1V34h-8.1v4.1h10.1v4.3H20.9z"/>
				<path class="st0" d="M59.8,26.2l-4.6,15.8h-5.7L45,26.3l-0.1,16.1h-5l0.7-20.9h7.5l4.4,15.7l4.4-15.7h7.4L65,42.4h-5.1
					L59.8,26.2z"/>
				<path class="st0" d="M69.1,42.4V21.4h5.3v20.9H69.1z"/>
				<path class="st0" d="M78.8,42.4V21.4h5.3v16.5h8.8v4.5H78.8z"/>
				<path class="st0" d="M101.9,34.4v7.9h-5.2v-8l-7.3-13H95l4.3,8.3l4.2-8.3h5.6L101.9,34.4z"/>
			</g>
			<g>
				<path class="st0" d="M132.2,27c-1.6-0.9-3.4-1.5-5.3-1.5c-3.6,0-6,2.4-6,6.4c0,4,2.2,6.5,6,6.5c2,0,4-0.7,5.5-1.7l1.1,4.7
					c-1.6,0.9-4.4,1.5-6.9,1.5c-6.7,0-11.1-3.9-11.1-10.9c0-6.8,4.4-11.1,11.3-11.1c2.5,0,5,0.6,6.9,1.6L132.2,27z"/>
				<path class="st0" d="M156.4,42.4h-5.3l-1.5-4.5h-7.8l-1.5,4.5H135l7.4-20.9h6.7L156.4,42.4z M145.7,25.6l-2.8,8.2h5.5
					L145.7,25.6z"/>
				<path class="st0" d="M163.8,42.4h-5.3V21.4c0,0,8.6,0,8.4,0c5.6,0,8.5,2.6,8.5,6.6c0,2.8-1.5,5-4.3,6l5.4,8.3h-6l-4.2-7
					l-2.4,0.2V42.4z M166.4,31.5c2.3-0.2,3.5-1.1,3.5-3.1c0-1.8-1.3-2.7-4-2.7c-0.1,0-2.2,0-2.2,0v5.9L166.4,31.5z"/>
				<path class="st0" d="M183.9,42.4h-5.3V21.4c0,0,8.6,0,8.4,0c5.6,0,8.5,2.6,8.5,6.6c0,2.8-1.5,5-4.3,6l5.4,8.3h-6l-4.2-7
					l-2.4,0.2V42.4z M186.5,31.5c2.3-0.2,3.5-1.1,3.5-3.1c0-1.8-1.3-2.7-4-2.7c-0.1,0-2.2,0-2.2,0v5.9L186.5,31.5z"/>
			</g>
		</g>
		<g>
			<g>
				<path class="st0" d="M27.2,67.5c-4,0-6.3-2.5-6.3-6.5V50.4h1.7v10.4c0,3.2,1.6,5.1,4.7,5.1c3,0,4.6-1.8,4.6-5.1
					c0,0.1,0-10.4,0-10.4h1.7c0,0,0,10.2,0,10.3C33.6,64.9,31.4,67.5,27.2,67.5z"/>
				<path class="st0" d="M49.5,50.4h1.7v16.9h-1.8l-9.6-14.5v14.3H38V50.4h1.9l9.5,14.4V50.4z"/>
				<path class="st0" d="M56,67.1V50.4h1.7v16.8H56z"/>
				<path class="st0" d="M69.1,67.1h-2L61,50.4h1.7l5.4,15l5.4-15h1.7L69.1,67.1z"/>
				<path class="st0" d="M78.4,67.1V50.4h10.1V52h-8.4v6h7v1.6h-7v6h8.4v1.6H78.4z"/>
				<path class="st0" d="M94,67.1h-1.7V50.4c0,0,4.4,0,4.5,0c4.1,0,6.1,1.9,6.1,4.8c0,2.5-1.7,4-3.9,4.7l4.6,7.2h-2l-4.3-6.9
					L94,60.4V67.1z M97,58.8c2.2-0.1,4.2-1.3,4.2-3.5s-1.6-3.4-4.6-3.4c-0.1,0-2.6,0-2.6,0v7L97,58.8z"/>
				<path class="st0" d="M115.3,62.8c0-2-1.6-2.7-4.2-3.5c-2.4-0.7-4.9-1.7-4.9-4.7c0-2.7,2.3-4.6,5.4-4.6c1.9,0,3.6,0.5,5,1.4
					L116,53c-1.3-0.9-2.9-1.4-4.4-1.4c-2.5,0-3.7,1.3-3.7,2.9c0,1.8,1.7,2.5,4.2,3.4c2.4,0.7,4.9,1.8,4.9,4.9c0,2.8-2.3,4.8-5.7,4.8
					c-2,0-3.9-0.6-5.4-1.6l0.6-1.5c1.3,0.9,2.9,1.6,4.8,1.6C113.7,66,115.3,64.6,115.3,62.8z"/>
				<path class="st0" d="M120.8,67.1V50.4h1.7v16.8H120.8z"/>
				<path class="st0" d="M133.2,52v15.1h-1.7V52h-5.9v-1.6h13.5V52H133.2z"/>
				<path class="st0" d="M148.3,60.4v6.7h-1.7v-6.7l-5.8-10h1.9l4.8,8.3l4.7-8.3h1.9L148.3,60.4z"/>
			</g>
			<g>
				<g>
					<path class="st0" d="M193.3,67.1h-1.7l-1.8-4.8h-7.6l-1.8,4.8h-1.7l6.4-16.8h2L193.3,67.1z M186,52.1l-3.2,8.7h6.4L186,52.1z"
						/>
					<path class="st0" d="M197.8,67.1h-1.7V50.4c0,0,4.4,0,4.5,0c4.1,0,6.1,1.9,6.1,4.8c0,2.5-1.7,4-3.9,4.7l4.6,7.2h-2l-4.3-6.9
						l-3.4,0.2V67.1z M200.8,58.8c2.2-0.1,4.2-1.3,4.2-3.5s-1.6-3.4-4.6-3.4c-0.1,0-2.6,0-2.6,0v7L200.8,58.8z"/>
					<path class="st0" d="M216,52v15.1h-1.7V52h-5.9v-1.6h13.5V52H216z"/>
				</g>
				<path class="st0" d="M231.1,61.6v4.8h-1.5v-4.8h-4.7l0.1-1.5h4.6v-4.8h1.5v4.8h4.6l0.1,1.5H231.1z"/>
				<g>
					<path class="st0" d="M247.8,67.1c-0.7,0-4.4,0-4.4,0V50.4c0,0,3.9,0,4.6,0c5.5,0,8.9,3.3,8.9,8.3
						C256.8,63.9,253.5,67.1,247.8,67.1z M247.8,52h-2.7v13.6h2.8c4.3,0,7.2-2.2,7.2-6.8C255.1,54.5,252.4,52,247.8,52z"/>
					<path class="st0" d="M260.1,67.1V50.4h10.1V52h-8.4v6h7v1.6h-7v6h8.4v1.6H260.1z"/>
					<path class="st0" d="M282.3,62.8c0-2-1.6-2.7-4.2-3.5c-2.4-0.7-4.9-1.7-4.9-4.7c0-2.7,2.3-4.6,5.4-4.6c1.9,0,3.6,0.5,5,1.4
						l-0.6,1.5c-1.3-0.9-2.9-1.4-4.4-1.4c-2.5,0-3.7,1.3-3.7,2.9c0,1.8,1.7,2.5,4.2,3.4c2.4,0.7,4.9,1.8,4.9,4.9
						c0,2.8-2.3,4.8-5.7,4.8c-2,0-3.9-0.6-5.4-1.6l0.6-1.5c1.3,0.9,2.9,1.6,4.8,1.6C280.6,66,282.3,64.6,282.3,62.8z"/>
					<path class="st0" d="M287.8,67.1V50.4h1.7v16.8H287.8z"/>
					<path class="st0" d="M301.2,67.5c-4.9,0-8.1-3.4-8.1-8.7c0-5.3,3.4-8.8,8.1-8.8c2.1,0,4.1,0.6,5.3,1.4L306,53
						c-1.3-0.8-3-1.4-4.8-1.4c-3.6,0-6.3,2.6-6.3,7.2c0,4.4,2.5,7.2,6.4,7.2c1.6,0,2.9-0.4,4-1v-4.6h-4.9v-1.6h6.5v7
						C305.3,66.9,303.1,67.5,301.2,67.5z"/>
					<path class="st0" d="M322.4,50.4h1.7v16.9h-1.9l-9.6-14.5v14.3H311V50.4h1.9l9.5,14.4V50.4z"/>
				</g>
			</g>
			<g>
				<path class="st0" d="M162.8,63.7c-2.5,0-4.2-1.7-4.2-4.4c0-2.5,1.7-4.4,4.2-4.4c2.5,0,4.2,1.7,4.2,4.4
					C167,61.7,165.3,63.7,162.8,63.7z M162.8,55.9c-1.8,0-3,1.3-3,3.3c0,2.1,1.2,3.4,3.1,3.4c1.8,0,3-1.3,3-3.3
					C165.9,57.2,164.6,55.9,162.8,55.9z"/>
				<path class="st0" d="M168.8,55.1h5.2v1.1h-4v2.7h3.3v1.1H170v3.5h-1.1V55.1z"/>
			</g>
		</g>
	</g>
</g>
</svg>
